<svg id="Logo" xmlns="http://www.w3.org/2000/svg" viewBox="0 0 198.43 91.42"><defs><style>.cls-1{fill:#ef7019;}.cls-2{fill:#007857;}.cls-3{fill:#fff;}</style></defs><polygon class="cls-1" points="0 0 0 88.8 100.1 74.44 159.59 71.66 198.43 63.98 198.43 0 0 0"/><polygon class="cls-2" points="158.66 66.61 103.57 69.87 39.25 78.4 6.55 79.17 6.55 91.42 42.25 88.4 80.69 81.08 144.04 74.94 191.73 68.37 191.73 58.76 158.66 66.61"/><path class="cls-3" d="M138.1,26.79V19.62a.36.36,0,0,0-.44-.34c-1.45.29-5.78,1.68-5.92,4.27,0,.12,0,2.29,0,3.58a2.14,2.14,0,0,1-.19.93c-.13.18-.44.19-1,.33-2.07.49-2.28,2.1-2.4,5.09.45,0,1.79-.1,2.37-.18.8-.13,1.26.43,1.26,1.2v21a.44.44,0,0,0,.52.34c1.46-.29,5.7-.92,5.84-3.51,0-.82,0-13.65,0-18.31,0-.81-.06-1,.32-1.39s.24-.29.93-.37c3.83-.42,3.57-5,3.58-5.36l-4.17.45c-.36.05-.69-.08-.69-.55"/><path class="cls-3" d="M96.85,35.34c-5.11.38-6.51,1.82-7.21,2.61a11.54,11.54,0,0,0-6.81-1.19c-3.12.23-6.11,1.5-6.81,2.29-2.32-1.75-4.72-.47-5.49-.51a12.47,12.47,0,0,1,.64,4.28V62.44s6.09-.26,6.32-3.68V44.27c2.56-.7,7.7-4.41,7.62,5.67V61s6.33-.28,6.57-3.7V42.94c3-1.24,7.4-4.35,7.39,5.63v11s6.27-.36,6.27-3.67c0,0,0-13.65,0-14.15-.43-4.19-4.74-6.69-8.49-6.41"/><path class="cls-3" d="M177.93,26.15c-.31,0-2.53-.24-2.53-.24-3.76.33-5.49,2-6.09,2a10,10,0,0,0-1.94-.8,7.16,7.16,0,0,0-3.09.08,32.45,32.45,0,0,1,.77,4.3A171.58,171.58,0,0,1,165.92,51c0,.22,0,.34.16.47a.41.41,0,0,0,.32.14c5.78-1.06,5.31-1.6,5.39-8.09,0,0-.2-6.07,0-8.32.25-2.9,6.29-1,6.37-7.32a6.8,6.8,0,0,0-.23-1.75"/><path class="cls-3" d="M69.61,58.76c-3,.72-8.54-.06-10.74-1.38,1.29-1.15,9.88-9.14,10.31-14.5.28-3.45-5-3.57-5.32-3.58-4.57-.11-14,1-15.52,7.94-1.11,5.3,3.67,16.64,13,16.87,3.22.07,6.76-3,8.44-5a.71.71,0,0,0,.08-.15c0-.1,0-.23-.21-.2M56.45,55.67c-1.63-1.26-4.05-4.69-4-6.54,0-3.35,9.52-6.53,9.43-1.78,0,2-3.83,7.3-5.4,8.32"/><path class="cls-3" d="M128.18,52c-2.94.73-8.53-.06-10.74-1.37,1.3-1.16,9.89-9.15,10.32-14.51.28-3.45-5-3.56-5.32-3.57-4.57-.11-14,1-15.52,7.94-1.11,5.3,3.67,16.64,13,16.86,3.21.08,6.76-3,8.43-5a.28.28,0,0,0,.08-.15c0-.1,0-.22-.21-.2M115,48.93c-1.63-1.26-4-4.7-4-6.55,0-3.34,9.51-6.53,9.43-1.77,0,2-3.83,7.29-5.4,8.32"/><path class="cls-3" d="M162.87,47.67c-3,.72-8.54-.07-10.74-1.38,1.29-1.15,9.88-9.15,10.32-14.5.28-3.45-5-3.57-5.32-3.58-4.58-.11-14.06,1-15.52,7.94-1.12,5.3,3.66,16.64,12.95,16.87,3.22.07,6.77-3,8.44-5a.71.71,0,0,0,.08-.15c0-.11,0-.23-.21-.2m-13.16-3.09c-1.63-1.26-4.05-4.69-4-6.54,0-3.35,9.51-6.54,9.43-1.78,0,2-3.83,7.3-5.4,8.32"/><path class="cls-3" d="M47.21,20c-.58,0-10.34.2-12,3.23-1.51,2.72,0,4.56,1.93,17.84-5.26.61-16.4,3.91-16.84,10.87-.35,5.51,8,14.48,17.11,15.79,1.34.19,5.47.26,7-3.53,1.5-2.4,3-38,3.19-42.77,0-.35-.13-1.48-.4-1.43m-10.56,41c-2.82-.43-7.81-2.36-9.93-5.92-1.46-2.44,5.22-6.18,9-7.62,1.22-.47,2.08-.71,2.66,1a41.35,41.35,0,0,1,.88,5.74,45.27,45.27,0,0,1,.25,5c0,2.48-1.66,2.05-2.85,1.87"/></svg>
