<svg xmlns="http://www.w3.org/2000/svg" width="168.05" height="43.271"><g fill="#fff"><path data-name="Path 14276" d="M5.17 33.734v-6.121l9.129-7.809-9.129-7.86V5.78l13.694 11.91v4.14Z"/><path data-name="Path 14277" d="M19.005 37.288v-4.585h18.444v4.585Z"/><path data-name="Path 14278" d="M40.276 2.593v37.886H2.39V2.593h37.886M42.67.199H0v42.67h42.67Z"/><path data-name="Path 14279" d="M47.061 6.349c0-4.019 2.13-6.254 4.867-6.254 2.183 0 4 1.507 4.573 4.157l-2.616.677c-.208-1.455-.987-2.183-1.87-2.183-1.109 0-1.958 1.022-1.958 3.6s.849 3.6 1.958 3.6c.883 0 1.663-.727 1.87-2.182l2.616.677c-.572 2.651-2.391 4.157-4.573 4.157-2.737.004-4.867-2.23-4.867-6.249Z"/><path data-name="Path 14280" d="M57.456 6.254C57.456 2.235 59.604 0 62.341 0s4.885 2.235 4.885 6.254-2.148 6.254-4.885 6.254-4.885-2.236-4.885-6.254Zm6.773 0c0-2.495-.814-3.6-1.888-3.6s-1.888 1.109-1.888 3.6.814 3.6 1.888 3.6 1.888-1.106 1.888-3.6Z"/><path data-name="Path 14281" d="M68.404.19h3.135l1.386 3.742L74.279.19h3.135v12.126h-2.513v-7.9l-2.01 4.974-1.992-4.972-.017 7.9h-2.477Z"/><path data-name="Path 14282" d="M78.985.19h3.135l1.385 3.742L84.859.19h3.135v12.126h-2.513v-7.9l-2.01 4.974-1.992-4.972-.016 7.9h-2.477Z"/><path data-name="Path 14283" d="M92.659.19h3.4l3.48 12.126h-2.962l-.606-2.373h-3.326l-.624 2.373H89.18Zm2.72 7.449-1.057-4.14-1.074 4.14Z"/><path data-name="Path 14284" d="M100.623.19h2.806l3.534 6.825-.035-6.825h2.46v12.126h-2.633l-3.707-7.085.034 7.085h-2.46Z"/><path data-name="Path 14285" d="M110.669.19h3.846c2.927 0 5.231 2.252 5.231 6.063s-2.3 6.063-5.231 6.063h-3.846Zm3.621 9.632c1.368 0 2.459-1.178 2.459-3.569s-1.091-3.569-2.459-3.569h-.641v7.137Z"/><path data-name="Path 14286" d="M118.625 13.702h8.246v1.92h-8.246Z"/><path data-name="Path 14287" d="M128.075.198h2.979V9.83h5.474v2.495h-8.453Z"/><path data-name="Path 14288" d="M137.81 9.855h2.945V2.713h-2.945V.223h8.869v2.49h-2.945V9.85h2.945v2.494h-8.869Z"/><path data-name="Path 14289" d="M147.961.19h2.807l3.534 6.825-.035-6.825h2.46v12.126h-2.633l-3.708-7.085.035 7.085h-2.46Z"/><path data-name="Path 14290" d="M158.008.19h8.384v2.495h-5.4v2.3h3.406V7.41h-3.412v2.408h5.474v2.494h-8.453Z"/><path data-name="Path 14291" d="M48.037 18.848h5.909v9.343h5.633v-9.343h5.908v24.045h-5.908v-9.515h-5.633v9.515h-5.909Z"/><path data-name="Path 14292" d="M68.638 18.848h16.627v4.948H74.546v4.569h6.767v4.808h-6.767v4.775h10.852v4.946h-16.76Z"/><path data-name="Path 14293" d="M88.421 18.848h9.1c4.947 0 8.485 3.126 8.485 7.626a7.2 7.2 0 0 1-4.191 6.7l5.084 9.721h-6.218l-4.328-8.794h-2.027v8.794h-5.909Zm8.555 10.58a2.859 2.859 0 1 0 0-5.7h-2.645v5.7Z"/><path data-name="Path 14294" d="M107.934 30.87c0-7.969 4.259-12.4 9.687-12.4s9.687 4.431 9.687 12.4-4.26 12.4-9.687 12.4-9.687-4.43-9.687-12.4Zm13.431 0c0-4.946-1.614-7.145-3.744-7.145s-3.745 2.2-3.745 7.145 1.615 7.145 3.745 7.145 3.744-2.198 3.744-7.145Z"/><path data-name="Path 14295" d="M129.739 18.848h16.627v4.948h-10.719v4.569h6.767v4.808h-6.767v4.775h10.855v4.946h-16.763Z"/><path data-name="Path 14296" d="m148.573 40.04 2.886-4.431c3.057 2.027 5.049 2.852 7.178 2.852 2.268 0 3.642-1 3.642-2.439 0-4.74-13.191-.824-13.191-9.927 0-4.706 3.436-7.626 9.275-7.626a15.377 15.377 0 0 1 9.308 2.989l-2.988 4.294a10.682 10.682 0 0 0-6.63-2.473c-2.164 0-3.4.962-3.4 2.3 0 4.294 13.4.687 13.4 9.893 0 4.637-3.71 7.8-9.549 7.8a16.885 16.885 0 0 1-9.931-3.232Z"/></g></svg>